<svg xmlns="http://www.w3.org/2000/svg" width="1320" height="1110" viewBox="0 0 1320 1110">
<rect x="0" y="0" width="1320" height="1110" fill="#FFFFFF"/>
<line x1="30" y1="540" x2="30" y2="390" stroke="#FFFF00" stroke-width="10" stroke-linecap="round" stroke-linejoin="round"/>
<line x1="60" y1="570" x2="420" y2="570" stroke="#FFFF00" stroke-width="10" stroke-linecap="round" stroke-linejoin="round"/>
<line x1="60" y1="570" x2="30" y2="540" stroke="#FFFF00" stroke-width="10" stroke-linecap="round" stroke-linejoin="round"/>
<line x1="330" y1="90" x2="330" y2="690" stroke="#FFFF00" stroke-width="10" stroke-linecap="round" stroke-linejoin="round"/>
<line x1="330" y1="480" x2="270" y2="480" stroke="#FFFF00" stroke-width="10" stroke-linecap="round" stroke-linejoin="round" stroke-dasharray="30,20" stroke-dashoffset="10"/>
<line x1="180" y1="600" x2="180" y2="840" stroke="#00FF00" stroke-width="10" stroke-linecap="round" stroke-linejoin="round"/>
<line x1="180" y1="600" x2="300" y2="600" stroke="#00FF00" stroke-width="10" stroke-linecap="round" stroke-linejoin="round"/>
<line x1="180" y1="750" x2="30" y2="750" stroke="#00FF00" stroke-width="10" stroke-linecap="round" stroke-linejoin="round"/>
<line x1="30" y1="750" x2="30" y2="1020" stroke="#00FF00" stroke-width="10" stroke-linecap="round" stroke-linejoin="round"/>
<line x1="60" y1="750" x2="60" y2="840" stroke="#00FF00" stroke-width="10" stroke-linecap="round" stroke-linejoin="round"/>
<line x1="60" y1="840" x2="30" y2="870" stroke="#00FF00" stroke-width="10" stroke-linecap="round" stroke-linejoin="round"/>
<line x1="420" y1="570" x2="450" y2="540" stroke="#FFFF00" stroke-width="10" stroke-linecap="round" stroke-linejoin="round"/>
<line x1="450" y1="540" x2="450" y2="210" stroke="#FFFF00" stroke-width="10" stroke-linecap="round" stroke-linejoin="round"/>
<line x1="330" y1="690" x2="330" y2="780" stroke="#808080" stroke-width="10" stroke-linecap="round" stroke-linejoin="round"/>
<line x1="330" y1="690" x2="420" y2="690" stroke="#808080" stroke-width="10" stroke-linecap="round" stroke-linejoin="round"/>
<line x1="360" y1="810" x2="450" y2="810" stroke="#808080" stroke-width="10" stroke-linecap="round" stroke-linejoin="round"/>
<line x1="450" y1="810" x2="450" y2="720" stroke="#808080" stroke-width="10" stroke-linecap="round" stroke-linejoin="round"/>
<line x1="300" y1="600" x2="300" y2="630" stroke="#00FF00" stroke-width="10" stroke-linecap="round" stroke-linejoin="round"/>
<line x1="300" y1="630" x2="330" y2="660" stroke="#00FF00" stroke-width="10" stroke-linecap="round" stroke-linejoin="round"/>
<line x1="450" y1="750" x2="510" y2="750" stroke="#FF0000" stroke-width="10" stroke-linecap="round" stroke-linejoin="round"/>
<line x1="630" y1="630" x2="630" y2="90" stroke="#FF0000" stroke-width="10" stroke-linecap="round" stroke-linejoin="round"/>
<line x1="660" y1="600" x2="660" y2="150" stroke="#FF0000" stroke-width="10" stroke-linecap="round" stroke-linejoin="round"/>
<line x1="510" y1="750" x2="660" y2="600" stroke="#FF0000" stroke-width="10" stroke-linecap="round" stroke-linejoin="round"/>
<line x1="420" y1="690" x2="450" y2="720" stroke="#808080" stroke-width="10" stroke-linecap="round" stroke-linejoin="round"/>
<line x1="330" y1="780" x2="360" y2="810" stroke="#808080" stroke-width="10" stroke-linecap="round" stroke-linejoin="round"/>
<line x1="480" y1="780" x2="1080" y2="780" stroke="#0000FF" stroke-width="10" stroke-linecap="round" stroke-linejoin="round"/>
<line x1="450" y1="810" x2="1050" y2="810" stroke="#00FFFF" stroke-width="10" stroke-linecap="round" stroke-linejoin="round"/>
<line x1="450" y1="810" x2="450" y2="1080" stroke="#FF00FF" stroke-width="10" stroke-linecap="round" stroke-linejoin="round"/>
<line x1="480" y1="780" x2="450" y2="810" stroke="#0000FF" stroke-width="10" stroke-linecap="round" stroke-linejoin="round"/>
<line x1="450" y1="810" x2="480" y2="840" stroke="#00FF00" stroke-width="10" stroke-linecap="round" stroke-linejoin="round"/>
<line x1="480" y1="840" x2="450" y2="840" stroke="#808080" stroke-width="10" stroke-linecap="round" stroke-linejoin="round"/>
<line x1="480" y1="780" x2="480" y2="840" stroke="#808080" stroke-width="10" stroke-linecap="round" stroke-linejoin="round"/>
<line x1="480" y1="840" x2="660" y2="840" stroke="#00FF00" stroke-width="10" stroke-linecap="round" stroke-linejoin="round"/>
<line x1="660" y1="840" x2="660" y2="900" stroke="#00FF00" stroke-width="10" stroke-linecap="round" stroke-linejoin="round"/>
<line x1="660" y1="840" x2="660" y2="810" stroke="#808080" stroke-width="10" stroke-linecap="round" stroke-linejoin="round"/>
<line x1="180" y1="570" x2="180" y2="600" stroke="#808080" stroke-width="10" stroke-linecap="round" stroke-linejoin="round"/>
<line x1="450" y1="870" x2="480" y2="870" stroke="#808080" stroke-width="10" stroke-linecap="round" stroke-linejoin="round"/>
<line x1="510" y1="840" x2="510" y2="810" stroke="#808080" stroke-width="10" stroke-linecap="round" stroke-linejoin="round"/>
<line x1="480" y1="870" x2="510" y2="840" stroke="#808080" stroke-width="10" stroke-linecap="round" stroke-linejoin="round"/>
<line x1="690" y1="780" x2="870" y2="600" stroke="#0000FF" stroke-width="10" stroke-linecap="round" stroke-linejoin="round"/>
<line x1="870" y1="600" x2="870" y2="150" stroke="#0000FF" stroke-width="10" stroke-linecap="round" stroke-linejoin="round"/>
<line x1="870" y1="270" x2="1110" y2="30" stroke="#0000FF" stroke-width="10" stroke-linecap="round" stroke-linejoin="round"/>
<line x1="870" y1="600" x2="1050" y2="600" stroke="#0000FF" stroke-width="10" stroke-linecap="round" stroke-linejoin="round"/>
<line x1="1050" y1="810" x2="1200" y2="960" stroke="#00FFFF" stroke-width="10" stroke-linecap="round" stroke-linejoin="round"/>
<line x1="1050" y1="810" x2="1110" y2="810" stroke="#00FFFF" stroke-width="10" stroke-linecap="round" stroke-linejoin="round"/>
<line x1="1110" y1="810" x2="1200" y2="720" stroke="#00FFFF" stroke-width="10" stroke-linecap="round" stroke-linejoin="round"/>
<line x1="1200" y1="720" x2="1200" y2="660" stroke="#00FFFF" stroke-width="10" stroke-linecap="round" stroke-linejoin="round"/>
<line x1="660" y1="900" x2="1110" y2="900" stroke="#00FF00" stroke-width="10" stroke-linecap="round" stroke-linejoin="round"/>
<line x1="1110" y1="900" x2="1200" y2="990" stroke="#00FF00" stroke-width="10" stroke-linecap="round" stroke-linejoin="round"/>
<line x1="450" y1="1080" x2="570" y2="1080" stroke="#FF00FF" stroke-width="10" stroke-linecap="round" stroke-linejoin="round"/>
<text x="30" y="390" fill="#000000" font-size="12" text-anchor="start" dominant-baseline="middle" transform="rotate(-37 30 390)">Sunbury</text>
<text x="30" y="420" fill="#000000" font-size="12" text-anchor="start" dominant-baseline="middle" transform="rotate(-37 30 420)">Digger's Rest</text>
<text x="30" y="450" fill="#000000" font-size="12" text-anchor="start" dominant-baseline="middle" transform="rotate(-37 30 450)">Watergardens</text>
<text x="30" y="480" fill="#000000" font-size="12" text-anchor="start" dominant-baseline="middle" transform="rotate(-37 30 480)">Keilor Plains</text>
<text x="30" y="510" fill="#000000" font-size="12" text-anchor="start" dominant-baseline="middle" transform="rotate(-37 30 510)">Ginifer</text>
<text x="30" y="540" fill="#000000" font-size="12" text-anchor="start" dominant-baseline="middle" transform="rotate(-37 30 540)">Albion</text>
<text x="60" y="570" fill="#000000" font-size="12" text-anchor="start" dominant-baseline="middle" transform="rotate(-37 60 570)">Sunshine</text>
<text x="90" y="570" fill="#000000" font-size="12" text-anchor="start" dominant-baseline="middle" transform="rotate(-37 90 570)">Tottenham</text>
<text x="120" y="570" fill="#000000" font-size="12" text-anchor="start" dominant-baseline="middle" transform="rotate(-37 120 570)">West Footscray</text>
<text x="150" y="570" fill="#000000" font-size="12" text-anchor="start" dominant-baseline="middle" transform="rotate(-37 150 570)">Middle Footscray</text>
<text x="180" y="570" fill="#000000" font-size="12" text-anchor="start" dominant-baseline="middle" transform="rotate(-37 180 570)">Footscray</text>
<text x="330" y="90" fill="#000000" font-size="12" text-anchor="start" dominant-baseline="middle" transform="rotate(-37 330 90)">Craigiburn</text>
<text x="330" y="120" fill="#000000" font-size="12" text-anchor="start" dominant-baseline="middle" transform="rotate(-37 330 120)">Roxburgh Park</text>
<text x="330" y="150" fill="#000000" font-size="12" text-anchor="start" dominant-baseline="middle" transform="rotate(-37 330 150)">Coolaroo</text>
<text x="330" y="180" fill="#000000" font-size="12" text-anchor="start" dominant-baseline="middle" transform="rotate(-37 330 180)">Broadmeadows</text>
<text x="330" y="210" fill="#000000" font-size="12" text-anchor="start" dominant-baseline="middle" transform="rotate(-37 330 210)">Jacana</text>
<text x="330" y="240" fill="#000000" font-size="12" text-anchor="start" dominant-baseline="middle" transform="rotate(-37 330 240)">Glenroy</text>
<text x="330" y="270" fill="#000000" font-size="12" text-anchor="start" dominant-baseline="middle" transform="rotate(-37 330 270)">Oak Park</text>
<text x="330" y="300" fill="#000000" font-size="12" text-anchor="start" dominant-baseline="middle" transform="rotate(-37 330 300)">Pascoe Vale</text>
<text x="330" y="330" fill="#000000" font-size="12" text-anchor="start" dominant-baseline="middle" transform="rotate(-37 330 330)">Strathmore</text>
<text x="330" y="360" fill="#000000" font-size="12" text-anchor="start" dominant-baseline="middle" transform="rotate(-37 330 360)">Glenbervie</text>
<text x="330" y="390" fill="#000000" font-size="12" text-anchor="start" dominant-baseline="middle" transform="rotate(-37 330 390)">Essendon</text>
<text x="330" y="420" fill="#000000" font-size="12" text-anchor="start" dominant-baseline="middle" transform="rotate(-37 330 420)">Moone Ponds</text>
<text x="330" y="450" fill="#000000" font-size="12" text-anchor="start" dominant-baseline="middle" transform="rotate(-37 330 450)">Ascot Vale</text>
<text x="330" y="510" fill="#000000" font-size="12" text-anchor="start" dominant-baseline="middle" transform="rotate(-37 330 510)">Newmarket</text>
<text x="330" y="540" fill="#000000" font-size="12" text-anchor="start" dominant-baseline="middle" transform="rotate(-37 330 540)">Kensington</text>
<text x="300" y="480" fill="#000000" font-size="12" text-anchor="end" dominant-baseline="middle" transform="rotate(37 300 480)">Showgrounds</text>
<text x="270" y="480" fill="#000000" font-size="12" text-anchor="end" dominant-baseline="middle" transform="rotate(37 270 480)">Flemington Racecourse</text>
<text x="180" y="630" fill="#000000" font-size="12" text-anchor="end" dominant-baseline="middle" transform="rotate(37 180 630)">Seddon</text>
<text x="180" y="660" fill="#000000" font-size="12" text-anchor="end" dominant-baseline="middle" transform="rotate(37 180 660)">Yarraville</text>
<text x="180" y="690" fill="#000000" font-size="12" text-anchor="end" dominant-baseline="middle" transform="rotate(37 180 690)">Spotswood</text>
<text x="180" y="720" fill="#000000" font-size="12" text-anchor="end" dominant-baseline="middle" transform="rotate(37 180 720)">Newport</text>
<text x="180" y="780" fill="#000000" font-size="12" text-anchor="end" dominant-baseline="middle" transform="rotate(37 180 780)">North Williamstown</text>
<text x="180" y="810" fill="#000000" font-size="12" text-anchor="end" dominant-baseline="middle" transform="rotate(37 180 810)">Williamstown Beach</text>
<text x="180" y="840" fill="#000000" font-size="12" text-anchor="end" dominant-baseline="middle" transform="rotate(37 180 840)">Williamstown</text>
<text x="60" y="780" fill="#000000" font-size="12" text-anchor="start" dominant-baseline="middle" transform="rotate(37 60 780)">Seaholme</text>
<text x="60" y="810" fill="#000000" font-size="12" text-anchor="start" dominant-baseline="middle" transform="rotate(37 60 810)">Altona</text>
<text x="60" y="840" fill="#000000" font-size="12" text-anchor="start" dominant-baseline="middle" transform="rotate(37 60 840)">Westona</text>
<text x="30" y="900" fill="#000000" font-size="12" text-anchor="start" dominant-baseline="middle" transform="rotate(37 30 900)">Laverton</text>
<text x="30" y="930" fill="#000000" font-size="12" text-anchor="start" dominant-baseline="middle" transform="rotate(37 30 930)">Aircraft</text>
<text x="30" y="960" fill="#000000" font-size="12" text-anchor="start" dominant-baseline="middle" transform="rotate(37 30 960)">Williams Landing</text>
<text x="30" y="990" fill="#000000" font-size="12" text-anchor="start" dominant-baseline="middle" transform="rotate(37 30 990)">Hoppers Crossing</text>
<text x="30" y="1020" fill="#000000" font-size="12" text-anchor="start" dominant-baseline="middle" transform="rotate(37 30 1020)">Werribee</text>
<text x="450" y="210" fill="#000000" font-size="12" text-anchor="start" dominant-baseline="middle" transform="rotate(-37 450 210)">Upfield</text>
<text x="450" y="240" fill="#000000" font-size="12" text-anchor="start" dominant-baseline="middle" transform="rotate(-37 450 240)">Gowrie</text>
<text x="450" y="270" fill="#000000" font-size="12" text-anchor="start" dominant-baseline="middle" transform="rotate(-37 450 270)">Fawkner</text>
<text x="450" y="300" fill="#000000" font-size="12" text-anchor="start" dominant-baseline="middle" transform="rotate(-37 450 300)">Merlynston</text>
<text x="450" y="330" fill="#000000" font-size="12" text-anchor="start" dominant-baseline="middle" transform="rotate(-37 450 330)">Batman</text>
<text x="450" y="360" fill="#000000" font-size="12" text-anchor="start" dominant-baseline="middle" transform="rotate(-37 450 360)">Coburb</text>
<text x="450" y="390" fill="#000000" font-size="12" text-anchor="start" dominant-baseline="middle" transform="rotate(-37 450 390)">Moreland</text>
<text x="450" y="420" fill="#000000" font-size="12" text-anchor="start" dominant-baseline="middle" transform="rotate(-37 450 420)">Anstey</text>
<text x="450" y="450" fill="#000000" font-size="12" text-anchor="start" dominant-baseline="middle" transform="rotate(-37 450 450)">Brunswick</text>
<text x="450" y="480" fill="#000000" font-size="12" text-anchor="start" dominant-baseline="middle" transform="rotate(-37 450 480)">Jewell</text>
<text x="450" y="510" fill="#000000" font-size="12" text-anchor="start" dominant-baseline="middle" transform="rotate(-37 450 510)">Royal Park</text>
<text x="450" y="540" fill="#000000" font-size="12" text-anchor="start" dominant-baseline="middle" transform="rotate(-37 450 540)">Flemington Bridge</text>
<text x="360" y="570" fill="#000000" font-size="12" text-anchor="start" dominant-baseline="middle" transform="rotate(-37 360 570)">Macaulay</text>
<text x="330" y="660" fill="#000000" font-size="12" text-anchor="start" dominant-baseline="middle" transform="rotate(-37 330 660)">North Melbourne</text>
<text x="210" y="600" fill="#000000" font-size="12" text-anchor="start" dominant-baseline="middle" transform="rotate(-37 210 600)">South Kensington</text>
<text x="330" y="750" fill="#000000" font-size="12" text-anchor="end" dominant-baseline="middle" transform="rotate(37 330 750)">Southern Cross</text>
<text x="360" y="690" fill="#000000" font-size="12" text-anchor="start" dominant-baseline="middle" transform="rotate(-37 360 690)">Flagstaff</text>
<text x="420" y="690" fill="#000000" font-size="12" text-anchor="start" dominant-baseline="middle" transform="rotate(-37 420 690)">Melbourne Central</text>
<text x="450" y="750" fill="#000000" font-size="12" text-anchor="start" dominant-baseline="middle" transform="rotate(-37 450 750)">Parliament</text>
<text x="630" y="630" fill="#000000" font-size="12" text-anchor="start" dominant-baseline="middle" transform="rotate(-12 630 630)">Clifton Hill</text>
<text x="600" y="660" fill="#000000" font-size="12" text-anchor="start" dominant-baseline="middle" transform="rotate(-12 600 660)">Victoria Park</text>
<text x="570" y="690" fill="#000000" font-size="12" text-anchor="start" dominant-baseline="middle" transform="rotate(-12 570 690)">Collingwood</text>
<text x="540" y="720" fill="#000000" font-size="12" text-anchor="start" dominant-baseline="middle" transform="rotate(-12 540 720)">North Richmond</text>
<text x="480" y="750" fill="#000000" font-size="12" text-anchor="start" dominant-baseline="middle" transform="rotate(-37 480 750)">Jolimont</text>
<text x="510" y="750" fill="#000000" font-size="12" text-anchor="start" dominant-baseline="middle" transform="rotate(-12 510 750)">West Richmond</text>
<text x="660" y="600" fill="#000000" font-size="12" text-anchor="start" dominant-baseline="middle" transform="rotate(-12 660 600)">Dennis</text>
<text x="660" y="570" fill="#000000" font-size="12" text-anchor="start" dominant-baseline="middle" transform="rotate(-37 660 570)">Fairfield</text>
<text x="630" y="600" fill="#000000" font-size="12" text-anchor="end" dominant-baseline="middle" transform="rotate(37 630 600)">Rushall</text>
<text x="630" y="570" fill="#000000" font-size="12" text-anchor="end" dominant-baseline="middle" transform="rotate(37 630 570)">Merri</text>
<text x="630" y="540" fill="#000000" font-size="12" text-anchor="end" dominant-baseline="middle" transform="rotate(37 630 540)">Northcote</text>
<text x="630" y="510" fill="#000000" font-size="12" text-anchor="end" dominant-baseline="middle" transform="rotate(37 630 510)">Croxton</text>
<text x="630" y="480" fill="#000000" font-size="12" text-anchor="end" dominant-baseline="middle" transform="rotate(37 630 480)">Thornbury</text>
<text x="630" y="450" fill="#000000" font-size="12" text-anchor="end" dominant-baseline="middle" transform="rotate(37 630 450)">Bell</text>
<text x="630" y="420" fill="#000000" font-size="12" text-anchor="end" dominant-baseline="middle" transform="rotate(37 630 420)">Preston</text>
<text x="630" y="390" fill="#000000" font-size="12" text-anchor="end" dominant-baseline="middle" transform="rotate(37 630 390)">Regent</text>
<text x="630" y="360" fill="#000000" font-size="12" text-anchor="end" dominant-baseline="middle" transform="rotate(37 630 360)">Reservoir</text>
<text x="630" y="330" fill="#000000" font-size="12" text-anchor="end" dominant-baseline="middle" transform="rotate(37 630 330)">Ruthven</text>
<text x="630" y="300" fill="#000000" font-size="12" text-anchor="end" dominant-baseline="middle" transform="rotate(37 630 300)">Keon Park</text>
<text x="630" y="270" fill="#000000" font-size="12" text-anchor="end" dominant-baseline="middle" transform="rotate(37 630 270)">Thomastown</text>
<text x="630" y="240" fill="#000000" font-size="12" text-anchor="end" dominant-baseline="middle" transform="rotate(37 630 240)">Lalor</text>
<text x="630" y="210" fill="#000000" font-size="12" text-anchor="end" dominant-baseline="middle" transform="rotate(37 630 210)">Epping</text>
<text x="630" y="180" fill="#000000" font-size="12" text-anchor="end" dominant-baseline="middle" transform="rotate(37 630 180)">South Morang</text>
<text x="630" y="150" fill="#000000" font-size="12" text-anchor="end" dominant-baseline="middle" transform="rotate(37 630 150)">Middle Gorge</text>
<text x="630" y="120" fill="#000000" font-size="12" text-anchor="end" dominant-baseline="middle" transform="rotate(37 630 120)">Hawkestowe</text>
<text x="630" y="90" fill="#000000" font-size="12" text-anchor="end" dominant-baseline="middle" transform="rotate(37 630 90)">Mernda</text>
<text x="660" y="540" fill="#000000" font-size="12" text-anchor="start" dominant-baseline="middle" transform="rotate(-37 660 540)">Alphington</text>
<text x="660" y="510" fill="#000000" font-size="12" text-anchor="start" dominant-baseline="middle" transform="rotate(-37 660 510)">Darebin</text>
<text x="660" y="480" fill="#000000" font-size="12" text-anchor="start" dominant-baseline="middle" transform="rotate(-37 660 480)">Ivanhoe</text>
<text x="660" y="450" fill="#000000" font-size="12" text-anchor="start" dominant-baseline="middle" transform="rotate(-37 660 450)">Eaglemont</text>
<text x="660" y="420" fill="#000000" font-size="12" text-anchor="start" dominant-baseline="middle" transform="rotate(-37 660 420)">Heidelberg</text>
<text x="660" y="390" fill="#000000" font-size="12" text-anchor="start" dominant-baseline="middle" transform="rotate(-37 660 390)">Rosanna</text>
<text x="660" y="360" fill="#000000" font-size="12" text-anchor="start" dominant-baseline="middle" transform="rotate(-37 660 360)">Macleod</text>
<text x="660" y="330" fill="#000000" font-size="12" text-anchor="start" dominant-baseline="middle" transform="rotate(-37 660 330)">Watsonia</text>
<text x="660" y="300" fill="#000000" font-size="12" text-anchor="start" dominant-baseline="middle" transform="rotate(-37 660 300)">Greensborough</text>
<text x="660" y="270" fill="#000000" font-size="12" text-anchor="start" dominant-baseline="middle" transform="rotate(-37 660 270)">Montmorency</text>
<text x="660" y="240" fill="#000000" font-size="12" text-anchor="start" dominant-baseline="middle" transform="rotate(-37 660 240)">Eltham</text>
<text x="660" y="210" fill="#000000" font-size="12" text-anchor="start" dominant-baseline="middle" transform="rotate(-37 660 210)">Diamond Creek</text>
<text x="660" y="180" fill="#000000" font-size="12" text-anchor="start" dominant-baseline="middle" transform="rotate(-37 660 180)">Wattle Glen</text>
<text x="660" y="150" fill="#000000" font-size="12" text-anchor="start" dominant-baseline="middle" transform="rotate(-37 660 150)">Hurstbridge</text>
<text x="420" y="810" fill="#000000" font-size="12" text-anchor="end" dominant-baseline="middle" transform="rotate(-37 420 810)">Flinders Street</text>
<text x="450" y="840" fill="#000000" font-size="12" text-anchor="end" dominant-baseline="middle" transform="rotate(-37 450 840)">Richmond</text>
<text x="660" y="840" fill="#000000" font-size="12" text-anchor="end" dominant-baseline="middle" transform="rotate(-37 660 840)">Caulfield</text>
<text x="450" y="870" fill="#000000" font-size="12" text-anchor="end" dominant-baseline="middle" transform="rotate(-37 450 870)">South Yarra</text>
<text x="540" y="840" fill="#000000" font-size="12" text-anchor="end" dominant-baseline="middle" transform="rotate(-37 540 840)">Hawksburn</text>
<text x="570" y="840" fill="#000000" font-size="12" text-anchor="end" dominant-baseline="middle" transform="rotate(-37 570 840)">Toorak</text>
<text x="600" y="840" fill="#000000" font-size="12" text-anchor="end" dominant-baseline="middle" transform="rotate(-37 600 840)">Amadale</text>
<text x="630" y="840" fill="#000000" font-size="12" text-anchor="end" dominant-baseline="middle" transform="rotate(-37 630 840)">Malvern</text>
<text x="600" y="780" fill="#000000" font-size="12" text-anchor="start" dominant-baseline="middle" transform="rotate(-37 600 780)">East Richmond</text>
<text x="630" y="780" fill="#000000" font-size="12" text-anchor="start" dominant-baseline="middle" transform="rotate(-37 630 780)">Burnley</text>
<text x="750" y="780" fill="#000000" font-size="12" text-anchor="start" dominant-baseline="middle" transform="rotate(-37 750 780)">Heyington</text>
<text x="780" y="780" fill="#000000" font-size="12" text-anchor="start" dominant-baseline="middle" transform="rotate(-37 780 780)">Kooyong</text>
<text x="810" y="780" fill="#000000" font-size="12" text-anchor="start" dominant-baseline="middle" transform="rotate(-37 810 780)">Tooronga</text>
<text x="840" y="780" fill="#000000" font-size="12" text-anchor="start" dominant-baseline="middle" transform="rotate(-37 840 780)">Gardiner</text>
<text x="750" y="720" fill="#000000" font-size="12" text-anchor="start" dominant-baseline="middle" transform="rotate(0 750 720)">Hawthorn</text>
<text x="780" y="690" fill="#000000" font-size="12" text-anchor="start" dominant-baseline="middle" transform="rotate(0 780 690)">Glenferrie</text>
<text x="810" y="660" fill="#000000" font-size="12" text-anchor="start" dominant-baseline="middle" transform="rotate(0 810 660)">Auburn</text>
<text x="840" y="630" fill="#000000" font-size="12" text-anchor="start" dominant-baseline="middle" transform="rotate(0 840 630)">Camberwell</text>
<text x="870" y="570" fill="#000000" font-size="12" text-anchor="end" dominant-baseline="middle" transform="rotate(37 870 570)">East Camberwell</text>
<text x="870" y="540" fill="#000000" font-size="12" text-anchor="end" dominant-baseline="middle" transform="rotate(37 870 540)">Canterbury</text>
<text x="870" y="510" fill="#000000" font-size="12" text-anchor="end" dominant-baseline="middle" transform="rotate(37 870 510)">Chatham</text>
<text x="870" y="480" fill="#000000" font-size="12" text-anchor="end" dominant-baseline="middle" transform="rotate(37 870 480)">Union</text>
<text x="870" y="450" fill="#000000" font-size="12" text-anchor="end" dominant-baseline="middle" transform="rotate(37 870 450)">Box Hill</text>
<text x="870" y="420" fill="#000000" font-size="12" text-anchor="end" dominant-baseline="middle" transform="rotate(37 870 420)">Laburnum</text>
<text x="870" y="390" fill="#000000" font-size="12" text-anchor="end" dominant-baseline="middle" transform="rotate(37 870 390)">Blackburn</text>
<text x="870" y="360" fill="#000000" font-size="12" text-anchor="end" dominant-baseline="middle" transform="rotate(37 870 360)">Nunawading</text>
<text x="870" y="330" fill="#000000" font-size="12" text-anchor="end" dominant-baseline="middle" transform="rotate(37 870 330)">Mitchem</text>
<text x="870" y="300" fill="#000000" font-size="12" text-anchor="end" dominant-baseline="middle" transform="rotate(37 870 300)">Heatherdale</text>
<text x="870" y="270" fill="#000000" font-size="12" text-anchor="end" dominant-baseline="middle" transform="rotate(37 870 270)">Ringwood</text>
<text x="870" y="240" fill="#000000" font-size="12" text-anchor="end" dominant-baseline="middle" transform="rotate(37 870 240)">Ringwood East</text>
<text x="870" y="210" fill="#000000" font-size="12" text-anchor="end" dominant-baseline="middle" transform="rotate(37 870 210)">Croydon</text>
<text x="870" y="180" fill="#000000" font-size="12" text-anchor="end" dominant-baseline="middle" transform="rotate(37 870 180)">Mooroolbark</text>
<text x="870" y="150" fill="#000000" font-size="12" text-anchor="end" dominant-baseline="middle" transform="rotate(37 870 150)">Lilydale</text>
<text x="900" y="240" fill="#000000" font-size="12" text-anchor="start" dominant-baseline="middle" transform="rotate(0 900 240)">Heathmont</text>
<text x="930" y="210" fill="#000000" font-size="12" text-anchor="start" dominant-baseline="middle" transform="rotate(0 930 210)">Bayswater</text>
<text x="960" y="180" fill="#000000" font-size="12" text-anchor="start" dominant-baseline="middle" transform="rotate(0 960 180)">Boronia</text>
<text x="990" y="150" fill="#000000" font-size="12" text-anchor="start" dominant-baseline="middle" transform="rotate(0 990 150)">Ferntree Gully</text>
<text x="1020" y="120" fill="#000000" font-size="12" text-anchor="start" dominant-baseline="middle" transform="rotate(0 1020 120)">Upper Ferntree Gully</text>
<text x="1050" y="90" fill="#000000" font-size="12" text-anchor="start" dominant-baseline="middle" transform="rotate(0 1050 90)">Upwey</text>
<text x="1080" y="60" fill="#000000" font-size="12" text-anchor="start" dominant-baseline="middle" transform="rotate(0 1080 60)">Tecoma</text>
<text x="1110" y="30" fill="#000000" font-size="12" text-anchor="start" dominant-baseline="middle" transform="rotate(0 1110 30)">Belgrave</text>
<text x="900" y="600" fill="#000000" font-size="12" text-anchor="start" dominant-baseline="middle" transform="rotate(-37 900 600)">Riversdale</text>
<text x="930" y="600" fill="#000000" font-size="12" text-anchor="start" dominant-baseline="middle" transform="rotate(-37 930 600)">Willison</text>
<text x="960" y="600" fill="#000000" font-size="12" text-anchor="start" dominant-baseline="middle" transform="rotate(-37 960 600)">Hartwell</text>
<text x="990" y="600" fill="#000000" font-size="12" text-anchor="start" dominant-baseline="middle" transform="rotate(-37 990 600)">Burwood</text>
<text x="1020" y="600" fill="#000000" font-size="12" text-anchor="start" dominant-baseline="middle" transform="rotate(-37 1020 600)">Ashburton</text>
<text x="1050" y="600" fill="#000000" font-size="12" text-anchor="start" dominant-baseline="middle" transform="rotate(-37 1050 600)">Alamein</text>
<text x="870" y="780" fill="#000000" font-size="12" text-anchor="start" dominant-baseline="middle" transform="rotate(-37 870 780)">Glen Iris</text>
<text x="900" y="780" fill="#000000" font-size="12" text-anchor="start" dominant-baseline="middle" transform="rotate(-37 900 780)">Darling</text>
<text x="930" y="780" fill="#000000" font-size="12" text-anchor="start" dominant-baseline="middle" transform="rotate(-37 930 780)">East Malvern</text>
<text x="960" y="780" fill="#000000" font-size="12" text-anchor="start" dominant-baseline="middle" transform="rotate(-37 960 780)">Holmesglen</text>
<text x="990" y="780" fill="#000000" font-size="12" text-anchor="start" dominant-baseline="middle" transform="rotate(-37 990 780)">Jordanville</text>
<text x="1020" y="780" fill="#000000" font-size="12" text-anchor="start" dominant-baseline="middle" transform="rotate(-37 1020 780)">Mount Waverley</text>
<text x="1050" y="780" fill="#000000" font-size="12" text-anchor="start" dominant-baseline="middle" transform="rotate(-37 1050 780)">Syndal</text>
<text x="1080" y="780" fill="#000000" font-size="12" text-anchor="start" dominant-baseline="middle" transform="rotate(-37 1080 780)">Glen Waverley</text>
<text x="690" y="810" fill="#000000" font-size="12" text-anchor="start" dominant-baseline="middle" transform="rotate(37 690 810)">Carnegie</text>
<text x="720" y="810" fill="#000000" font-size="12" text-anchor="start" dominant-baseline="middle" transform="rotate(37 720 810)">Murrumbeena</text>
<text x="750" y="810" fill="#000000" font-size="12" text-anchor="start" dominant-baseline="middle" transform="rotate(37 750 810)">Hughesdale</text>
<text x="780" y="810" fill="#000000" font-size="12" text-anchor="start" dominant-baseline="middle" transform="rotate(37 780 810)">Oakleigh</text>
<text x="810" y="810" fill="#000000" font-size="12" text-anchor="start" dominant-baseline="middle" transform="rotate(37 810 810)">Huntingdale</text>
<text x="840" y="810" fill="#000000" font-size="12" text-anchor="start" dominant-baseline="middle" transform="rotate(37 840 810)">Clayton</text>
<text x="870" y="810" fill="#000000" font-size="12" text-anchor="start" dominant-baseline="middle" transform="rotate(37 870 810)">Westhall</text>
<text x="900" y="810" fill="#000000" font-size="12" text-anchor="start" dominant-baseline="middle" transform="rotate(37 900 810)">Springvale</text>
<text x="930" y="810" fill="#000000" font-size="12" text-anchor="start" dominant-baseline="middle" transform="rotate(37 930 810)">Sandown Park</text>
<text x="960" y="810" fill="#000000" font-size="12" text-anchor="start" dominant-baseline="middle" transform="rotate(37 960 810)">Noble Park</text>
<text x="990" y="810" fill="#000000" font-size="12" text-anchor="start" dominant-baseline="middle" transform="rotate(37 990 810)">Yarraman</text>
<text x="1020" y="810" fill="#000000" font-size="12" text-anchor="start" dominant-baseline="middle" transform="rotate(37 1020 810)">Dandenong</text>
<text x="1080" y="810" fill="#000000" font-size="12" text-anchor="start" dominant-baseline="middle" transform="rotate(37 1080 810)">Hallam</text>
<text x="1110" y="810" fill="#000000" font-size="12" text-anchor="start" dominant-baseline="middle" transform="rotate(37 1110 810)">Narre Warren</text>
<text x="1140" y="780" fill="#000000" font-size="12" text-anchor="start" dominant-baseline="middle" transform="rotate(37 1140 780)">Berwick</text>
<text x="1170" y="750" fill="#000000" font-size="12" text-anchor="start" dominant-baseline="middle" transform="rotate(37 1170 750)">Beaconsfield</text>
<text x="1200" y="720" fill="#000000" font-size="12" text-anchor="start" dominant-baseline="middle" transform="rotate(37 1200 720)">Officer</text>
<text x="1200" y="690" fill="#000000" font-size="12" text-anchor="start" dominant-baseline="middle" transform="rotate(37 1200 690)">Cardina Road</text>
<text x="1200" y="660" fill="#000000" font-size="12" text-anchor="start" dominant-baseline="middle" transform="rotate(37 1200 660)">Pakenham</text>
<text x="1140" y="900" fill="#000000" font-size="12" text-anchor="start" dominant-baseline="middle" transform="rotate(0 1140 900)">Lynbrook</text>
<text x="1170" y="930" fill="#000000" font-size="12" text-anchor="start" dominant-baseline="middle" transform="rotate(0 1170 930)">Merinda Park</text>
<text x="1200" y="960" fill="#000000" font-size="12" text-anchor="start" dominant-baseline="middle" transform="rotate(0 1200 960)">Cranbourne</text>
<text x="660" y="870" fill="#000000" font-size="12" text-anchor="end" dominant-baseline="middle" transform="rotate(-37 660 870)">Glenhuntly</text>
<text x="660" y="900" fill="#000000" font-size="12" text-anchor="end" dominant-baseline="middle" transform="rotate(-37 660 900)">Ormond</text>
<text x="690" y="900" fill="#000000" font-size="12" text-anchor="end" dominant-baseline="middle" transform="rotate(-37 690 900)">McKinnon</text>
<text x="720" y="900" fill="#000000" font-size="12" text-anchor="end" dominant-baseline="middle" transform="rotate(-37 720 900)">Bentleigh</text>
<text x="750" y="900" fill="#000000" font-size="12" text-anchor="end" dominant-baseline="middle" transform="rotate(-37 750 900)">Patterson</text>
<text x="780" y="900" fill="#000000" font-size="12" text-anchor="end" dominant-baseline="middle" transform="rotate(-37 780 900)">Moorabbin</text>
<text x="810" y="900" fill="#000000" font-size="12" text-anchor="end" dominant-baseline="middle" transform="rotate(-37 810 900)">Highett</text>
<text x="840" y="900" fill="#000000" font-size="12" text-anchor="end" dominant-baseline="middle" transform="rotate(-37 840 900)">Southland</text>
<text x="870" y="900" fill="#000000" font-size="12" text-anchor="end" dominant-baseline="middle" transform="rotate(-37 870 900)">Cheltenham</text>
<text x="900" y="900" fill="#000000" font-size="12" text-anchor="end" dominant-baseline="middle" transform="rotate(-37 900 900)">Mentone</text>
<text x="930" y="900" fill="#000000" font-size="12" text-anchor="end" dominant-baseline="middle" transform="rotate(-37 930 900)">Parkdale</text>
<text x="960" y="900" fill="#000000" font-size="12" text-anchor="end" dominant-baseline="middle" transform="rotate(-37 960 900)">Mordialloc</text>
<text x="990" y="900" fill="#000000" font-size="12" text-anchor="end" dominant-baseline="middle" transform="rotate(-37 990 900)">Aspendale</text>
<text x="1020" y="900" fill="#000000" font-size="12" text-anchor="end" dominant-baseline="middle" transform="rotate(-37 1020 900)">Edithvale</text>
<text x="1050" y="900" fill="#000000" font-size="12" text-anchor="end" dominant-baseline="middle" transform="rotate(-37 1050 900)">Chelsea</text>
<text x="1080" y="900" fill="#000000" font-size="12" text-anchor="end" dominant-baseline="middle" transform="rotate(-37 1080 900)">Bonbeach</text>
<text x="1110" y="900" fill="#000000" font-size="12" text-anchor="end" dominant-baseline="middle" transform="rotate(-37 1110 900)">Carrum</text>
<text x="1140" y="930" fill="#000000" font-size="12" text-anchor="end" dominant-baseline="middle" transform="rotate(-37 1140 930)">Seaford</text>
<text x="1170" y="960" fill="#000000" font-size="12" text-anchor="end" dominant-baseline="middle" transform="rotate(-37 1170 960)">Kananook</text>
<text x="1200" y="990" fill="#000000" font-size="12" text-anchor="end" dominant-baseline="middle" transform="rotate(-37 1200 990)">Frankston</text>
<text x="450" y="900" fill="#000000" font-size="12" text-anchor="end" dominant-baseline="middle" transform="rotate(-37 450 900)">Prahan</text>
<text x="450" y="930" fill="#000000" font-size="12" text-anchor="end" dominant-baseline="middle" transform="rotate(-37 450 930)">Windsor</text>
<text x="450" y="960" fill="#000000" font-size="12" text-anchor="end" dominant-baseline="middle" transform="rotate(-37 450 960)">Balaclava</text>
<text x="450" y="990" fill="#000000" font-size="12" text-anchor="end" dominant-baseline="middle" transform="rotate(-37 450 990)">Ripponlea</text>
<text x="450" y="1020" fill="#000000" font-size="12" text-anchor="end" dominant-baseline="middle" transform="rotate(-37 450 1020)">Elsternwick</text>
<text x="450" y="1050" fill="#000000" font-size="12" text-anchor="start" dominant-baseline="middle" transform="rotate(-37 450 1050)">Gardenvale</text>
<text x="450" y="1080" fill="#000000" font-size="12" text-anchor="start" dominant-baseline="middle" transform="rotate(-37 450 1080)">North Brighton</text>
<text x="480" y="1080" fill="#000000" font-size="12" text-anchor="start" dominant-baseline="middle" transform="rotate(-37 480 1080)">Middle Brighton</text>
<text x="510" y="1080" fill="#000000" font-size="12" text-anchor="start" dominant-baseline="middle" transform="rotate(-37 510 1080)">Brighton Beach</text>
<text x="540" y="1080" fill="#000000" font-size="12" text-anchor="start" dominant-baseline="middle" transform="rotate(-37 540 1080)">Hampton</text>
<text x="570" y="1080" fill="#000000" font-size="12" text-anchor="start" dominant-baseline="middle" transform="rotate(-37 570 1080)">Sandringham</text>
</svg>